<svg xmlns="http://www.w3.org/2000/svg" viewBox="0 0 64 64">
  <rect x="2" y="2" width="60" height="60" rx="15" fill="#111111"/>
  <g transform="translate(16.756,47.845) scale(0.04451)">
    <path d="M485 -337Q465 -417 435 -654Q434 -663 434 -672Q434 -711 458.5 -737.0Q483 -763 522 -768Q565 -773 596.5 -749.0Q628 -725 634 -678L703 -114Q704 -106 704 -98Q704 -58 680.0 -31.5Q656 -5 616 0Q596 3 570.5 -6.5Q545 -16 529 -32L200 -371Q220 -291 250 -58Q251 -49 251 -40Q251 -1 226.5 25.0Q202 51 163 56Q120 61 88.5 37.0Q57 13 51 -34L-18 -598Q-19 -606 -19 -614Q-19 -654 5.0 -680.5Q29 -707 69 -712Q89 -715 115.0 -705.5Q141 -696 156 -680Z" fill="#ffffff"/>
  </g>
</svg>
