<svg width="872" height="233" viewBox="0 0 872 233" fill="none" xmlns="http://www.w3.org/2000/svg">
<path fill-rule="evenodd" clip-rule="evenodd" d="M394.34 193.261C394.34 170.191 394.34 170.191 395.788 169.952C396.585 169.82 410.359 169.712 426.397 169.712C442.435 169.712 456.191 169.817 456.965 169.945C458.372 170.178 458.372 170.178 458.62 172.934C458.756 174.449 458.7 177.688 458.494 180.131C458.288 182.573 457.835 185.962 457.487 187.661C457.139 189.36 456.334 192.314 455.699 194.226C455.064 196.138 453.769 199.286 452.821 201.221C451.874 203.157 450.016 206.368 448.693 208.355C447.37 210.343 444.734 213.595 442.834 215.582C440.934 217.569 437.91 220.297 436.114 221.646C434.317 222.994 431.44 224.894 429.719 225.868C427.998 226.842 424.785 228.347 422.578 229.212C420.371 230.077 416.721 231.22 414.467 231.753C410.989 232.576 409.199 232.745 402.644 232.872C396.24 232.996 394.226 232.895 390.864 232.282C388.634 231.876 385.157 230.994 383.139 230.322C381.121 229.65 377.784 228.26 375.722 227.233C373.66 226.206 370.88 224.63 369.542 223.73C368.205 222.83 365.782 220.993 364.157 219.648C362.532 218.303 360.165 216.03 358.896 214.596C357.627 213.163 355.634 210.658 354.467 209.03C353.301 207.402 351.454 204.333 350.364 202.21C349.273 200.087 347.784 196.554 347.054 194.357C346.325 192.161 345.448 189.061 345.106 187.468C344.764 185.875 344.376 181.965 344.244 178.779C344.098 175.251 344.18 171.401 344.453 168.931C344.7 166.701 345.342 163.226 345.879 161.208C346.416 159.19 347.286 156.41 347.811 155.029C348.336 153.649 349.389 151.303 350.151 149.816C350.912 148.329 352.511 145.635 353.703 143.83C355.029 141.823 357.754 138.664 360.718 135.699C364.091 132.326 366.823 130.014 369.698 128.099C371.971 126.586 375.15 124.721 376.763 123.956C378.375 123.191 381.208 122.061 383.058 121.445C384.909 120.828 387.878 120.032 389.658 119.675C391.437 119.317 394.739 118.908 396.996 118.766C399.253 118.623 403.098 118.631 405.541 118.783C407.984 118.935 411.328 119.339 412.972 119.681C414.616 120.023 417.31 120.735 418.958 121.263C420.607 121.792 424.041 123.261 426.59 124.529C429.139 125.797 432.751 127.933 434.616 129.276C436.481 130.62 439.272 132.923 440.819 134.395C442.365 135.868 444.631 138.288 445.854 139.775C447.077 141.262 448.878 143.758 449.857 145.322C451.289 147.611 451.529 148.229 451.086 148.491C450.784 148.67 444.627 152.208 437.405 156.352C426.087 162.847 424.219 163.801 423.887 163.26C423.674 162.915 422.705 161.573 421.733 160.279C420.76 158.984 418.935 157.08 417.677 156.048C416.419 155.015 413.981 153.485 412.258 152.647C410.287 151.688 407.927 150.907 405.886 150.538C403.795 150.161 401.615 150.033 399.747 150.179C398.154 150.303 395.895 150.659 394.726 150.969C393.558 151.279 391.322 152.165 389.758 152.938C387.912 153.849 385.917 155.289 384.075 157.039C382.513 158.522 380.605 160.685 379.835 161.845C379.065 163.005 377.936 165.322 377.326 166.994C376.715 168.666 376.053 171.35 375.853 172.958C375.624 174.802 375.627 176.989 375.86 178.875C376.064 180.522 376.643 183.056 377.147 184.508C377.651 185.959 378.641 188.127 379.346 189.325C380.052 190.524 381.86 192.733 383.364 194.236C385.234 196.105 387.067 197.472 389.165 198.563C390.852 199.441 393.445 200.464 394.927 200.838C396.608 201.261 399.024 201.511 401.343 201.502C403.529 201.493 406.157 201.213 407.716 200.822C409.175 200.456 411.411 199.657 412.686 199.047C413.961 198.437 416.033 197.103 417.292 196.082C418.551 195.061 419.651 194.009 419.738 193.743C419.862 193.364 417.167 193.261 407.118 193.261H394.34ZM703.382 232.997C700.057 232.976 695.86 232.713 694.054 232.413C692.248 232.113 689.255 231.434 687.402 230.904C685.549 230.373 682.464 229.259 680.546 228.427C678.628 227.596 675.713 226.099 674.066 225.102C672.42 224.104 669.662 222.188 667.938 220.844C666.213 219.499 663.473 216.969 661.848 215.22C660.223 213.471 657.846 210.511 656.566 208.643C655.286 206.774 653.385 203.548 652.341 201.473C651.297 199.399 649.925 196.11 649.291 194.165C648.657 192.219 647.856 189.265 647.511 187.6C647.166 185.934 646.752 182.617 646.591 180.227C646.429 177.838 646.429 173.928 646.591 171.538C646.752 169.149 647.169 165.818 647.517 164.136C647.866 162.455 648.675 159.501 649.317 157.571C649.959 155.642 651.513 152.065 652.771 149.623C654.028 147.18 656.178 143.667 657.548 141.816C658.918 139.965 661.441 137.048 663.156 135.334C664.87 133.62 667.787 131.097 669.639 129.727C671.49 128.358 675.003 126.208 677.446 124.951C679.889 123.693 683.48 122.134 685.427 121.487C687.374 120.84 690.409 120.018 692.171 119.661C693.934 119.304 697.251 118.904 699.543 118.773C701.835 118.642 705.578 118.643 707.862 118.776C710.145 118.908 713.482 119.318 715.276 119.686C717.071 120.054 719.852 120.781 721.456 121.302C723.06 121.823 726.129 123.085 728.274 124.106C730.42 125.128 733.636 126.926 735.42 128.102C737.204 129.278 740.054 131.446 741.753 132.92C743.453 134.394 745.876 136.842 747.138 138.359C748.4 139.876 750.269 142.372 751.291 143.904C752.314 145.437 753.916 148.176 754.851 149.991C755.787 151.806 757.153 155.029 757.889 157.153C758.624 159.277 759.552 162.666 759.952 164.684C760.513 167.516 760.679 170.068 760.679 175.883C760.679 181.697 760.513 184.249 759.952 187.082C759.552 189.099 758.628 192.472 757.897 194.577C757.167 196.682 755.815 199.905 754.894 201.739C753.972 203.574 752.175 206.631 750.901 208.533C749.626 210.434 747.241 213.432 745.6 215.195C743.96 216.957 741.194 219.511 739.455 220.869C737.715 222.227 734.914 224.155 733.229 225.153C731.545 226.151 729.069 227.463 727.727 228.067C726.385 228.671 723.697 229.698 721.752 230.35C719.808 231.001 716.239 231.872 713.822 232.285C710.638 232.829 707.76 233.026 703.382 232.997ZM6.37278 121.239H39.0939L51.5405 144.409C59.3551 158.957 64.2252 167.626 64.6269 167.704C65.2159 167.819 65.2746 165.979 65.3663 144.534L65.4659 121.239L81.5418 121.138C97.6178 121.037 97.6178 121.037 97.86 122.248C97.9932 122.914 98.1003 146.941 98.098 175.641C98.0956 204.341 97.986 228.475 97.8543 229.271C97.6149 230.72 97.6149 230.72 81.4723 230.72H65.3297L62.209 224.928C60.4927 221.743 54.8869 211.316 49.7517 201.758C42.6983 188.629 40.2431 184.378 39.7121 184.378C39.0401 184.378 39.0092 185.4 39.0092 207.549V230.72H22.7754C10.1439 230.72 6.50089 230.613 6.35795 230.237C6.25692 229.971 6.21891 205.338 6.27351 175.496L6.37278 121.239ZM103.959 230.72C105.534 224.884 112.262 200.25 119.926 172.214L133.861 121.239L155.503 121.139L177.144 121.039L191.918 175.204C200.044 204.994 206.777 229.672 206.882 230.044C207.06 230.68 206.133 230.72 191.26 230.72C175.448 230.72 175.448 230.72 175.016 229.078C174.779 228.176 174.138 225.612 173.593 223.382C173.048 221.152 172.431 218.676 172.222 217.879C171.842 216.431 171.842 216.431 155.627 216.431C139.412 216.431 139.412 216.431 139.043 217.3C138.84 217.778 138.314 219.646 137.873 221.451C137.432 223.257 136.714 226.081 136.277 227.727L135.482 230.72H119.721H103.959ZM228.337 230.72C227.126 226.679 220.16 202.567 212.076 174.531C203.992 146.495 197.265 122.991 197.129 122.301C196.88 121.046 196.88 121.046 214.128 121.046C227.827 121.046 231.415 121.148 231.566 121.542C231.671 121.815 234 131.463 236.742 142.981C239.484 154.5 242.71 168.005 243.91 172.993C246 181.67 246.133 182.061 247.012 182.061C247.764 182.061 248.009 181.767 248.372 180.42C248.615 179.517 251.045 169.523 253.77 158.209C256.496 146.896 259.624 133.906 260.721 129.343L262.716 121.046H280.056C289.593 121.046 297.399 121.176 297.402 121.335C297.406 121.495 290.329 146.171 281.676 176.172L265.943 230.72H247.14H228.337ZM303.19 230.72V121.046H319.412H335.633V175.883V230.72H319.412H303.19ZM456.198 230.72C457.993 223.986 464.714 199.352 472.292 171.635L486.07 121.239L507.713 121.139L529.356 121.039L544.138 175.204C552.267 204.994 559.007 229.672 559.115 230.044C559.3 230.68 558.375 230.72 543.465 230.72C527.619 230.72 527.619 230.72 527.235 229.271C527.024 228.475 526.403 225.912 525.856 223.575C525.308 221.239 524.685 218.676 524.472 217.879C524.083 216.431 524.083 216.431 507.738 216.431H491.393L489.54 223.575L487.688 230.72H471.943H456.198ZM580.116 151.554H548.446V136.3V121.046H596.091H643.737L643.98 123.073C644.114 124.188 644.223 130.401 644.223 136.879C644.222 143.357 644.114 149.309 643.983 150.105C643.743 151.554 643.743 151.554 628.344 151.554H612.946V191.137V230.72H596.766C582.367 230.72 580.559 230.652 580.351 230.109C580.222 229.773 580.116 211.96 580.116 190.526V151.554ZM769.369 120.659C790.771 120.716 804.805 120.869 814.364 121.036C830.358 121.316 831.991 121.406 834.827 122.168C836.522 122.624 839.303 123.672 841.007 124.498C842.71 125.324 845.242 126.863 846.633 127.918C848.024 128.973 850.554 131.323 852.256 133.141C854.052 135.061 856.112 137.792 857.169 139.656C858.17 141.421 859.43 144.252 859.969 145.948C860.508 147.643 861.139 150.374 861.372 152.015C861.608 153.687 861.695 156.918 861.569 159.359C861.413 162.376 861.031 164.788 860.329 167.194C859.77 169.105 858.553 172.102 857.623 173.853C856.694 175.603 855.155 178.047 854.203 179.284C853.252 180.52 851.373 182.552 850.027 183.8C848.681 185.047 846.277 186.904 844.683 187.926C843.09 188.949 841.62 189.841 841.415 189.909C841.211 189.977 847.614 199.057 855.645 210.086C870.246 230.14 870.246 230.14 867.989 230.388C866.748 230.524 858.109 230.655 848.791 230.678C831.849 230.72 831.849 230.72 830.906 229.658C830.387 229.074 824.274 220.776 817.321 211.218C805.664 195.194 804.584 193.831 803.463 193.721C802.247 193.601 802.247 193.601 802.126 211.743C802.059 221.72 801.86 230.028 801.683 230.205C801.507 230.382 794.989 230.547 787.2 230.571C779.411 230.596 772.212 230.543 771.203 230.453C769.369 230.291 769.369 230.291 769.369 175.475V120.659ZM705.255 201.475C706.848 201.379 709.18 201.043 710.438 200.728C711.695 200.414 713.781 199.625 715.073 198.976C716.364 198.327 718.498 196.941 719.816 195.896C721.133 194.852 723.02 192.92 724.009 191.604C724.999 190.288 726.305 188.228 726.911 187.027C727.518 185.825 728.307 183.674 728.666 182.246C729.056 180.693 729.318 178.136 729.318 175.883C729.318 173.601 729.056 171.071 728.654 169.469C728.288 168.014 727.279 165.459 726.411 163.791C725.414 161.875 723.896 159.795 722.286 158.139C720.885 156.697 718.73 154.875 717.497 154.09C716.264 153.304 714.178 152.257 712.862 151.762C711.546 151.267 709.087 150.653 707.398 150.397C705.539 150.116 703.178 150.039 701.412 150.203C699.808 150.352 697.155 150.896 695.516 151.412C693.762 151.965 691.369 153.132 689.697 154.249C688.136 155.294 686.047 157.015 685.056 158.074C684.065 159.134 682.55 161.09 681.69 162.42C680.83 163.751 679.662 166.326 679.095 168.141C678.259 170.82 678.061 172.218 678.045 175.562C678.032 178.315 678.251 180.546 678.706 182.283C679.081 183.713 679.924 185.974 680.581 187.307C681.237 188.64 682.681 190.829 683.79 192.172C684.899 193.514 686.749 195.338 687.902 196.225C689.055 197.113 691.044 198.357 692.323 198.991C693.601 199.625 695.686 200.41 696.957 200.735C698.228 201.06 699.963 201.399 700.813 201.488C701.663 201.577 703.661 201.571 705.255 201.475ZM155.477 188.626C164.635 188.626 164.635 188.626 164.425 187.371C164.309 186.681 163.149 181.859 161.846 176.655C160.543 171.451 158.766 164.457 157.897 161.111C156.451 155.545 156.244 155.029 155.454 155.029C154.677 155.029 154.474 155.479 153.411 159.567C152.762 162.062 151.02 169.057 149.541 175.11C148.062 181.164 146.732 186.681 146.586 187.371C146.32 188.626 146.32 188.626 155.477 188.626ZM507.701 188.626C516.876 188.626 516.876 188.626 516.665 187.371C516.549 186.681 514.695 179.078 512.544 170.476C510.393 161.874 508.411 154.054 508.139 153.098C507.645 151.36 507.645 151.36 503.306 168.888C500.92 178.529 498.868 186.914 498.746 187.521C498.525 188.626 498.525 188.626 507.701 188.626ZM802.198 148.85V165.842L812.144 165.834C821.318 165.826 822.224 165.764 823.827 165.037C824.783 164.604 825.973 163.869 826.471 163.404C826.969 162.94 827.65 162.038 827.984 161.401C828.319 160.764 828.723 159.547 828.884 158.698C829.045 157.843 828.996 156.309 828.774 155.262C828.495 153.944 827.915 152.874 826.857 151.727C826.023 150.822 824.757 149.805 824.043 149.466C822.956 148.95 821.075 148.85 812.471 148.85H802.198ZM371.553 105.792C366.985 105.873 362.206 105.78 360.931 105.585C359.657 105.391 357.31 104.945 355.717 104.596C354.124 104.247 351.343 103.443 349.537 102.811C347.732 102.178 344.883 100.95 343.207 100.083C341.531 99.2147 339.097 97.7345 337.8 96.7931C336.502 95.8517 334.599 94.2764 333.57 93.2924C332.542 92.3083 330.924 90.5043 329.975 89.2834C329.027 88.0625 327.583 85.7165 326.767 84.07C325.951 82.4235 325.167 80.5214 325.025 79.8429C324.767 78.6095 324.767 78.6095 338.601 74.0842C346.209 71.5953 352.8 69.4847 353.248 69.3941C353.942 69.2535 354.091 69.4537 354.266 70.7536C354.378 71.5921 354.773 72.9155 355.143 73.6945C355.512 74.4736 356.581 75.7856 357.518 76.6102C358.455 77.4347 360.314 78.5464 361.648 79.0806C362.983 79.6148 365.191 80.2824 366.555 80.5642C367.919 80.8459 370.342 81.0765 371.939 81.0765C373.536 81.0765 375.959 80.8457 377.325 80.5637C378.69 80.2817 380.64 79.6291 381.658 79.1135C382.74 78.5651 383.752 77.7042 384.096 77.0388C384.42 76.4132 384.683 75.5018 384.682 75.0133C384.68 74.5249 384.345 73.6189 383.937 73C383.529 72.3812 382.477 71.3921 381.598 70.8022C380.72 70.2122 379.273 69.4615 378.384 69.1339C377.494 68.8065 371.813 67.3177 365.759 65.8256C359.705 64.3336 353.1 62.5997 351.082 61.9727C349.064 61.3456 345.762 60.0296 343.744 59.048C341.726 58.0665 338.666 56.3278 336.945 55.1841C335.224 54.0406 332.745 51.9607 331.436 50.5623C330.125 49.1605 328.45 46.8143 327.704 45.3332C326.96 43.8557 326.092 41.5291 325.775 40.163C325.458 38.797 325.09 36.3891 324.957 34.8122C324.819 33.1834 324.917 30.563 325.182 28.745C325.44 26.985 326.095 24.3445 326.639 22.8774C327.183 21.4103 328.268 19.2205 329.05 18.0113C329.832 16.8021 331.471 14.7348 332.691 13.4174C333.912 12.0999 336.072 10.1651 337.493 9.11777C338.913 8.07047 341.465 6.5193 343.165 5.67078C344.864 4.82222 347.988 3.57387 350.106 2.89658C352.225 2.21937 356.135 1.29543 358.796 0.843417C362.279 0.251982 365.367 0.0157929 369.815 0.000593265C373.861 -0.0132052 377.537 0.213916 380.464 0.658654C382.922 1.03212 386.485 1.77976 388.382 2.32012C390.278 2.86039 393.741 4.2328 396.078 5.36985C398.415 6.50695 401.463 8.30079 402.853 9.35628C404.242 10.4117 406.55 12.5394 407.98 14.0844C409.694 15.9347 411.103 17.9614 412.111 20.0218C412.951 21.7423 413.851 23.9699 414.109 24.972C414.367 25.974 414.467 26.9045 414.332 27.0398C414.196 27.175 408.122 28.4881 400.833 29.9578C393.545 31.4276 386.973 32.7277 386.229 32.8471C384.877 33.0641 384.877 33.0641 384.401 31.0487C384.14 29.9402 383.504 28.4809 382.989 27.8059C382.474 27.1309 381.021 26.0288 379.76 25.3567C378.499 24.6847 376.354 23.8724 374.993 23.5516C373.632 23.2308 371.388 22.9684 370.008 22.9684C368.627 22.9684 366.405 23.2258 365.071 23.5403C363.737 23.8549 361.958 24.4628 361.118 24.8912C360.278 25.3196 359.288 26.1322 358.918 26.6968C358.548 27.2615 358.245 28.364 358.245 29.147C358.245 30.0872 358.588 31.0201 359.255 31.8946C359.858 32.6851 361.321 33.7334 362.885 34.4959C364.326 35.1983 367.778 36.3591 370.556 37.0755C373.335 37.7918 378.243 38.9858 381.463 39.7288C384.683 40.4719 389.289 41.7115 391.698 42.4835C394.107 43.2555 397.388 44.4488 398.989 45.1352C400.59 45.8216 403.197 47.1392 404.782 48.063C406.368 48.9869 408.687 50.7106 409.936 51.8935C411.184 53.0764 412.97 55.1737 413.903 56.5543C414.865 57.9766 416.026 60.4034 416.582 62.1538C417.122 63.853 417.664 66.6555 417.786 68.3817C417.908 70.1078 417.805 72.8829 417.558 74.5485C417.31 76.214 416.614 79.0061 416.012 80.7531C415.41 82.5001 414.078 85.2753 413.053 86.9202C412.027 88.5652 409.871 91.2287 408.26 92.8391C406.649 94.4496 404.061 96.6115 402.509 97.6433C400.957 98.6751 398.18 100.182 396.338 100.992C394.495 101.802 391.424 102.917 389.512 103.468C387.6 104.02 384.646 104.735 382.946 105.058C381.012 105.425 376.75 105.699 371.553 105.792ZM29.3534 30.2943H0V16.1989V2.10351H44.1654H88.3308L88.5818 5.63837C88.7198 7.58259 88.8304 13.5345 88.8274 18.8649C88.8246 24.1953 88.7174 28.9475 88.5893 29.4254C88.3564 30.2943 88.3564 30.2943 74.111 30.2943H59.8655V67.1741V104.054H44.867C36.6178 104.054 29.7525 103.938 29.6109 103.796C29.4693 103.655 29.3534 87.059 29.3534 66.9167V30.2943ZM95.0124 104.054V2.10351H110.075H125.138V22.1846V42.2658H138.422C150.178 42.2658 151.732 42.1955 151.94 41.6549C152.069 41.319 152.174 32.2824 152.174 21.5738V2.10351H167.237H182.3V53.0787V104.054H167.237H152.174V84.5836C152.174 73.8749 152.069 64.8384 151.94 64.5025C151.732 63.9618 150.178 63.8916 138.422 63.8916H125.138V83.9728V104.054H110.075H95.0124ZM193.887 104.054V2.21596L229.414 2.01902C248.954 1.91069 265.378 1.90561 265.913 2.0078C266.884 2.19353 266.884 2.19353 266.884 15.0854V27.9773H245.642H224.399V35.1215V42.2658H242.359H260.319V53.0787V63.8916H242.359H224.399V71.0359V78.1801H245.642H266.884V91.117V104.054H230.386H193.887ZM484.917 103.861L481.86 90.9239H466.552H451.245L449.582 97.4889L447.92 104.054H433.27C419.498 104.054 418.633 104.013 418.825 103.378C418.937 103.006 424.957 80.9799 432.202 54.4303C439.447 27.8807 445.636 5.24598 445.955 4.13092C446.536 2.10351 446.536 2.10351 466.578 2.10351C486.619 2.10351 486.619 2.10351 487.055 3.74474C487.295 4.64745 493.47 27.2702 500.778 54.0175C508.085 80.7648 514.164 102.967 514.288 103.356C514.503 104.034 513.906 104.059 499.715 103.962L484.917 103.861ZM519.865 104.054V2.21705L555.643 2.01704C575.322 1.90705 591.746 1.9018 592.142 2.00531C592.826 2.18424 592.862 2.83153 592.862 15.0854V27.9773H571.619H550.377V35.1215V42.2658H568.336H586.296V53.0787V63.8916H568.336H550.377V82.1811C550.377 92.2403 550.266 101.277 550.131 102.262C549.885 104.054 549.885 104.054 534.875 104.054H519.865ZM600.2 104.054V2.21705L636.023 2.01661C655.726 1.90635 672.063 1.89939 672.329 2.00114C672.701 2.14403 672.811 5.12136 672.811 15.0817V27.9773H651.569H630.326V35.1215V42.2658H648.479H666.632V53.0787V63.8916H648.479H630.326V71.0359V78.1801H651.569H672.811V91.117V104.054H636.506H600.2ZM706.413 30.2943H677.06V16.2053V2.11626L721.283 2.01337C745.606 1.95673 773.138 1.95738 782.465 2.01481L799.425 2.11919L806.68 14.3724C810.67 21.1117 814.923 28.2431 816.13 30.2201L818.326 33.8146L827.686 17.959L837.045 2.10351H854.617C868.93 2.10351 872.152 2.19717 871.995 2.60857C871.888 2.88637 863.179 17.6663 852.642 35.4528L833.483 67.7919V85.9229V104.054H818.472C803.462 104.054 803.462 104.054 803.216 102.262C803.081 101.277 802.97 93.0657 802.969 84.0154L802.968 67.5603L785.399 37.8248C775.735 21.4702 767.403 7.56787 766.882 6.93071C765.934 5.77215 765.934 5.77215 765.908 17.1643C765.894 23.43 765.777 28.9475 765.649 29.4254C765.416 30.2943 765.416 30.2943 751.171 30.2943H736.925V67.1741V104.054H721.908C706.89 104.054 706.89 104.054 706.657 103.185C706.529 102.707 706.422 86.1112 706.419 66.3052L706.413 30.2943ZM466.565 65.0501C475.159 65.0501 475.159 65.0501 474.927 63.8938C474.8 63.2579 472.936 55.7419 470.784 47.1918C468.632 38.6416 466.753 31.4304 466.609 31.1668C466.464 30.9034 464.571 37.8545 462.402 46.6139C460.234 55.3733 458.35 63.1048 458.215 63.7951C457.971 65.0501 457.971 65.0501 466.565 65.0501Z" fill="white"/>
</svg>
